/* XPM */
static char *d8d3c712fa0e4b4fcdb70bcbe20c6da6jYM8xH9fh7TKQkwH[] = {
/* columns rows colors chars-per-pixel */
"30 30 159 2 ",
"   c #010006",
".  c #04050B",
"X  c #08070D",
"o  c #05090F",
"O  c #0B0B0E",
"+  c #020711",
"@  c #050A13",
"#  c #0D0D11",
"$  c #0B0F1A",
"%  c #100F15",
"&  c #0C1117",
"*  c #07111D",
"=  c #0C121A",
"-  c #121215",
";  c #181317",
":  c #14141B",
">  c #18171C",
",  c #17181D",
"<  c #1A191D",
"1  c #0F1620",
"2  c #151722",
"3  c #141A23",
"4  c #1C1C22",
"5  c #161F29",
"6  c #1B1E29",
"7  c #201F24",
"8  c #211F2C",
"9  c #1E2025",
"0  c #16212D",
"q  c #1B242D",
"w  c #1D2632",
"e  c #1E2834",
"r  c #232125",
"t  c #2A2526",
"y  c #24242B",
"u  c #28272D",
"i  c #272A2F",
"p  c #2B292D",
"a  c #352F2F",
"s  c #37322F",
"d  c #202731",
"f  c #232A34",
"g  c #2C2C32",
"h  c #302F34",
"j  c #2C3137",
"k  c #26303C",
"l  c #2B333D",
"z  c #323137",
"x  c #34343B",
"c  c #38373D",
"v  c #3A393E",
"b  c #2E3641",
"n  c #2F3B49",
"m  c #303741",
"M  c #313A44",
"N  c #3D3C43",
"B  c #353E49",
"V  c #3D3B48",
"C  c #403F44",
"Z  c #3D4047",
"A  c #37414B",
"S  c #3A434D",
"D  c #3C4651",
"F  c #3E4853",
"G  c #424145",
"H  c #45444A",
"J  c #49494E",
"K  c #444652",
"L  c #484653",
"P  c #424B56",
"I  c #4D4C53",
"U  c #434E5A",
"Y  c #504F55",
"T  c #514F5A",
"R  c #46515E",
"E  c #4A525D",
"W  c #525157",
"Q  c #55535B",
"!  c #58575F",
"~  c #59585E",
"^  c #455360",
"/  c #4C5662",
"(  c #4E5864",
")  c #4E5A68",
"_  c #575560",
"`  c #595762",
"'  c #525B65",
"]  c #5C5B63",
"[  c #525E6A",
"{  c #605F65",
"}  c #615F6A",
"|  c #55616D",
" . c #58626D",
".. c #576371",
"X. c #5B6572",
"o. c #5D6976",
"O. c #616066",
"+. c #65636A",
"@. c #68676E",
"#. c #6A6A6F",
"$. c #686672",
"%. c #6D6B73",
"&. c #626D7A",
"*. c #706F74",
"=. c #706E79",
"-. c #67717D",
";. c #6A717B",
":. c #717176",
">. c #74737A",
",. c #75747A",
"<. c #76757B",
"1. c #77767C",
"2. c #727179",
"3. c #6A7480",
"4. c #777580",
"5. c #797782",
"6. c #7C7A85",
"7. c #7D7D85",
"8. c #7F7E85",
"9. c #737F8B",
"0. c #7E7C89",
"q. c #807E89",
"w. c #807E8B",
"e. c #74818A",
"r. c #768493",
"t. c #7A8693",
"y. c #7D8997",
"u. c #7D8B9A",
"i. c #818086",
"p. c #82808B",
"a. c #83818C",
"s. c #87868C",
"d. c #8A898F",
"f. c #878590",
"g. c #888691",
"h. c #818B97",
"j. c #8A8892",
"k. c #8E8D93",
"l. c #8C8A95",
"z. c #8D8D95",
"x. c #8F8E94",
"c. c #828F9D",
"v. c #8F8D98",
"b. c #908F95",
"n. c #918F9A",
"m. c #929197",
"M. c #93919A",
"N. c #96959B",
"B. c #93919C",
"V. c #8694A3",
"C. c #8B97A5",
"Z. c #9A99A1",
"A. c #9A98A3",
"S. c #9C9BA1",
"D. c #9F9DA8",
"F. c #A09EA9",
"G. c #A2A1A9",
"H. c #B4B3BB",
"J. c #B5B4BC",
/* pixels */
"W ] ] I W ] Q N > % # : < : : < - - # # - ; - - # O O O O O ",
"~ ! W Q +.%.Y g u 4 # X X O # O : ; ; - O O O O X O O # - - ",
"] ] ] ] ~ H r X   # #     # < 4 # - ; - O X O # O O O # # # ",
"Q I W ] ! N 4 O g I Q v 4 > > # X X O O # - ; : < < < > > : ",
"+.J x v J ! O.@.O.~ I I %.i.+.x 4 : # # : < > : # # # # # # ",
"> N #.1.@.Q I W +.q.s.@.C c H Q C h 4 < 4 r 4 : O O # - : : ",
"g H J p # : N ] +.C 7 r C Q I N W H z u p g g g x v N C H H ",
"X O     4 c x 4 G G N z r 4 x W W H v z z v H J G G H J I I ",
": - 4 y u g g - H u % - #   # z N ` =.>.%.+.I z H I ! ! W ] ",
"- 4 J %.Y < # r H #   X # < G { 7.Z.H.J.G.j.2.@.7.! W @.@.! ",
"g 4 r J <.>.C X I r u H Y %.m.N.H.A.f.v.F.D.l.5.n.q.$.` ] $.",
"< r < 4 H @.] N G Q +.@.<.d.M.b.w.g.B.n.4.] ] %.a.j.=.I W $.",
"g p 4 4 y 4 z @.N x.k.] @.%.+.2.Q Q ] ] I H ] 6.%.@.Q _ } T ",
"I H 4 # y u 4 g p k.S.%.+.W N I Q N g N ` %.%.+.N Q I H ` _ ",
"W :.J % > y > > # N %.*.W N c N I $.w.0.$.I x y : L V 8 L $.",
"x.7.N > u >   4 4 X G %.N v +.+.+.+.Q x 8 y y 6 2 g 2 6 E ` ",
";.' x 5 3 6 2 @ 4 - 9 J #.:.%.*.C G p ; < 4 > 4 f $ 2 w B / ",
"' U b 0 1 2 : & & : < y x H G v p s t > 7 r < 4 @ + 3 w n ^ ",
"P P B e 1 = = : 3 f g 9 9 g z y p s t > r r < 4 @ = e 0 k U ",
"E E P b 6 1 = & @ 4 y 4 : < 4 4 t t > % > < : 9 5 5 e * 0 U ",
"' ' E B f q 3 = @ & 5 y 4 # # < - ; # O < < : 5 = = 3 @ e X.",
"' ' E S M l d 5 3 : 3 y 5 @ O < 4 r 4 r g 4 # = + @ 5 0 U y.",
"( [ / P A M l f 2 = @ o @ # - < p p y y i 3 @ = 3 5 b B [ u.",
"[ | | E D B M l d q : . & j Z Z 3 : X o = = = 0 M b F D R o.",
"[ [ [ | | ( F M B f d q & & = @ + @ @ = 5 f M B M A U ' | [ ",
"..o.&.&.o.| ( E ' S m l y 3 3 = q e d k b B D P  . .X.X.| | ",
"r.y.c.c.t.9.9.e.o.P M B A m l M M M B S P U E / / ( [ ' ' ' ",
"r.t.u.u.t.r.r.t.-.E M A E P K / A D P R / ( ' [ /  .&.&.o.X.",
"y.t.t.t.u.u.y.t.h.-.P F ' E S / R / ) [ ........o.-.3.X.( E ",
"C.V.u.u.C.C.V.c.C.t.' F [ ' P ' | | ......| [ [ | X.( B e e "
};
